<svg width="979" height="572" viewBox="0 0 979 572" fill="none" xmlns="http://www.w3.org/2000/svg">
<path d="M36.2397 471.751C37.0616 471.41 37.6665 470.774 38.0697 469.843C37.1392 469.487 36.2551 469.487 35.4332 469.828C34.5958 470.169 33.991 470.805 33.5878 471.735C34.5183 472.092 35.4022 472.092 36.2397 471.751Z" fill="#76A8DC"/>
<path d="M34.7199 467.377C35.6504 468.199 36.798 468.587 38.1782 468.541C38.0697 467.16 37.5579 466.059 36.6429 465.237C35.7124 464.431 34.5649 464.043 33.1846 464.09C33.2932 465.47 33.8049 466.555 34.7199 467.377Z" fill="#76A8DC"/>
<path d="M36.6119 395.016C37.7905 396.211 39.3104 396.846 41.1869 396.908C41.1714 395.032 40.582 393.497 39.4034 392.287C38.2403 391.077 36.7051 390.457 34.8286 390.379C34.8441 392.271 35.4332 393.807 36.6119 395.016Z" fill="#A7D2FF"/>
<path d="M43.1874 389.387C42.381 391.558 42.5052 393.822 43.5443 396.195C45.8705 395.063 47.4212 393.404 48.2276 391.248C49.0185 389.077 48.91 386.813 47.8709 384.424C45.5447 385.572 43.9783 387.216 43.1874 389.387Z" fill="#A7D2FF"/>
<circle opacity="0.1" cx="693" cy="286" r="286" fill="#1786FA"/>
<path d="M497.562 111.372H737.938C736.775 107.138 730.448 92.6068 698.284 98.1898C703.495 93.5528 706.938 86.4035 705.511 79.5799C705.077 77.5329 704.193 75.5323 702.704 74.059C701.37 72.7253 699.618 71.8879 697.834 71.2366C689.382 68.1969 677.767 72.5082 662.972 84.1548C690.142 41.4298 616.06 23.5179 615.563 77.5639C608.321 64.63 600.738 59.9466 592.813 63.5135C587.99 66.2894 590.967 74.6018 593.139 78.2462C558.431 61.3888 526.841 71.7328 541.543 90.9629C518.808 91.4437 504.137 98.2518 497.562 111.372Z" fill="white"/>
<path d="M871.123 259.118C864.516 247.503 853.692 244.494 835.02 250.868C838.788 242.354 827.514 225.59 809.478 243.346C814.89 214.827 772.134 211.539 774.243 239.113C763.558 225.791 735.302 233.359 746.297 249.286C729.797 245.192 723.113 249.007 712.273 259.118H871.123Z" fill="white"/>
<path d="M757.308 111.372H833.066C835.904 101.586 834.167 90.5442 803.228 99.4304C793.551 81.4409 774.662 99.3994 757.308 111.372Z" fill="white"/>
<path d="M73.5681 200.404H149.326C152.164 190.619 150.427 179.561 119.488 188.463C111.997 174.537 99.8855 177.049 88.5335 192.619C68.7451 177.173 55.2839 192.48 73.5681 200.404Z" fill="white"/>
<path d="M258.844 197.209H195.137V133.502H258.844V197.209Z" fill="white"/>
<path d="M258.844 174.025L195.137 167.372V133.502H258.844V174.025Z" fill="#9BB8CC"/>
<path d="M328.275 95.057L189.414 93.5062V164.472H237.939L328.275 95.057Z" fill="#171F4E"/>
<path d="M529.679 197.209H593.371V133.502H529.679V197.209Z" fill="white"/>
<path d="M529.679 174.025L593.371 167.372V133.502H529.679V174.025Z" fill="#9BB8CC"/>
<path d="M460.249 95.057L599.109 93.5062V164.472H550.584L460.249 95.057Z" fill="#171F4E"/>
<path d="M177.101 515.484H612.167V221.433L394.634 53.3866L177.101 221.433V515.484Z" fill="white"/>
<path d="M394.867 53.3866L612.4 221.433V245.936L568.481 211.942V202.653L426.628 87.1634V102.098L403.846 84.465L177.349 250.961V221.433L394.867 53.3866Z" fill="#9BB8CC"/>
<path d="M568.481 515.484L426.627 514.925V102.098L568.481 211.942V515.484Z" fill="#A7D2FF"/>
<path d="M568.481 202.653V211.942L426.627 102.098V87.1633L568.481 202.653Z" fill="#76A8DC"/>
<path d="M394.619 45.9116L645.65 232.087L629.304 249.999L394.619 68.7086L159.933 249.999L144.006 228.412L394.619 45.9116Z" fill="#171F4E"/>
<path d="M543.482 490.314H452.216V372.933H543.482V490.314Z" fill="white"/>
<path d="M501.268 484.095H537.542V378.236H501.268V484.095Z" fill="#171F4E"/>
<path d="M458.357 484.095H494.646V378.236H458.357V484.095Z" fill="#171F4E"/>
<path d="M543.482 490.314V488.732H452.216V490.314H543.482Z" fill="#9BB8CC"/>
<path d="M438.553 503.248H556.555V490.314H438.553V503.248Z" fill="white"/>
<path d="M432.8 515.484H562.308V502.891H432.8V515.484Z" fill="white"/>
<path d="M556.555 502.891V501.309H438.553V502.891H556.555Z" fill="#9BB8CC"/>
<path d="M543.482 285.684H452.216V205.785H543.482V285.684Z" fill="white"/>
<path d="M501.268 279.465H537.542V211.089H501.268V279.465Z" fill="#171F4E"/>
<path d="M458.357 279.465H494.646V211.089H458.357V279.465Z" fill="#171F4E"/>
<path d="M445.78 293.112L549.917 297.997V291.67H445.78V293.112Z" fill="#76A8DC"/>
<path d="M547.141 285.684H543.482V205.785H545.466L547.141 285.684Z" fill="#76A8DC"/>
<path d="M445.78 291.67H549.917V285.684H445.78V291.67Z" fill="#171F4E"/>
<path d="M340.79 205.785V245.285H284.619V205.785H340.79Z" fill="#171F4E"/>
<path d="M345.737 205.785H400.868V245.285H345.737V205.785Z" fill="#171F4E"/>
<path d="M284.619 251.209H407.103V205.785H409.057L410.84 255.086L284.619 252.853V251.209Z" fill="#9BB8CC"/>
<path d="M384.585 319.398L386.694 515.484H380.32V490.64V319.398H384.585Z" fill="#9BB8CC"/>
<path d="M612.167 515.484H924.177V318.034H612.167V515.484Z" fill="#1786FA"/>
<path d="M612.167 321.957L924.177 333.046V318.034H612.167V321.957Z" fill="#1469C2"/>
<path d="M612.167 318.034H929V297.408L612.167 301.378V318.034Z" fill="#171F4E"/>
<path d="M665.221 515.484H871.123V378.236H665.221V515.484Z" fill="white"/>
<path d="M665.221 390.178H871.123V387.852H665.221V390.178Z" fill="#E1ECEF"/>
<path d="M665.221 398.04H871.123V395.714H665.221V398.04Z" fill="#E1ECEF"/>
<path d="M665.221 405.903H871.123V403.577H665.221V405.903Z" fill="#E1ECEF"/>
<path d="M665.221 413.766H871.123V411.439H665.221V413.766Z" fill="#E1ECEF"/>
<path d="M665.221 421.628H871.123V419.302H665.221V421.628Z" fill="#E1ECEF"/>
<path d="M665.221 429.491H871.123V427.165H665.221V429.491Z" fill="#E1ECEF"/>
<path d="M665.221 437.354H871.123V435.027H665.221V437.354Z" fill="#E1ECEF"/>
<path d="M665.221 445.216H871.123V442.89H665.221V445.216Z" fill="#E1ECEF"/>
<path d="M665.221 453.079H871.123V450.753H665.221V453.079Z" fill="#E1ECEF"/>
<path d="M665.221 460.941H871.123V458.615H665.221V460.941Z" fill="#E1ECEF"/>
<path d="M665.221 468.789H871.123V466.463H665.221V468.789Z" fill="#E1ECEF"/>
<path d="M665.221 476.651H871.123V474.325H665.221V476.651Z" fill="#E1ECEF"/>
<path d="M665.221 484.514H871.123V482.188H665.221V484.514Z" fill="#E1ECEF"/>
<path d="M665.221 492.377H871.123V490.051H665.221V492.377Z" fill="#E1ECEF"/>
<path d="M665.221 500.239H871.123V497.913H665.221V500.239Z" fill="#E1ECEF"/>
<path d="M665.221 508.102H871.123V505.776H665.221V508.102Z" fill="#E1ECEF"/>
<path d="M662.073 382.113H876.907V370.265L662.073 372.545V382.113Z" fill="#171F4E"/>
<path d="M612.384 515.484H618.851L616.075 318.034H612.384V515.484Z" fill="#1469C2"/>
<path d="M87.4323 515.484H380.32V318.034H87.4323V515.484Z" fill="#1786FA"/>
<path d="M87.4323 515.484H380.32V490.64H87.4323V515.484Z" fill="#1469C2"/>
<path d="M87.4323 340.971L380.32 354.695V333.046H87.4323V340.971Z" fill="#1469C2"/>
<path d="M158.196 468.479H309.835V372.933H158.196V468.479Z" fill="white"/>
<path d="M278.043 462.524H304.004V378.237H278.043V462.524Z" fill="#171F4E"/>
<path d="M193.09 462.524H273.965V378.237H193.09V462.524Z" fill="#171F4E"/>
<path d="M163.05 462.524H189.011V378.237H163.05V462.524Z" fill="#171F4E"/>
<path d="M158.196 371.708H309.835H312.084L313.945 468.479H309.835V372.933H158.196V371.708Z" fill="#1469C2"/>
<path d="M309.835 467.672H158.196V469.937L313.945 476.838V467.672H309.835Z" fill="#1469C2"/>
<path d="M78.5927 333.046H382.072V318.794L78.5927 318.204V333.046Z" fill="white"/>
<path d="M78.5927 322.221L382.072 325.633V318.794L78.5927 318.204V322.221Z" fill="#9BB8CC"/>
<path d="M69.6911 314.079L145.991 275.34H313.743L394.96 315.801V320.298L69.6911 319.011V314.079Z" fill="#171F4E"/>
<path d="M376.288 339.389H365.432V328.688H376.288V339.389Z" fill="white"/>
<path d="M356.065 339.389H345.209V328.688H356.065V339.389Z" fill="white"/>
<path d="M335.843 339.389H324.987V328.688H335.843V339.389Z" fill="white"/>
<path d="M315.604 339.389H304.749V328.688H315.604V339.389Z" fill="white"/>
<path d="M295.382 339.389H284.526V328.688H295.382V339.389Z" fill="white"/>
<path d="M254.936 339.389H244.081V328.688H254.936V339.389Z" fill="white"/>
<path d="M275.159 339.389H264.303V328.688H275.159V339.389Z" fill="white"/>
<path d="M234.714 339.389H223.858V328.688H234.714V339.389Z" fill="white"/>
<path d="M214.491 339.389H203.635V328.688H214.491V339.389Z" fill="white"/>
<path d="M194.253 339.389H183.412V328.688H194.253V339.389Z" fill="white"/>
<path d="M174.03 339.389H163.174V328.688H174.03V339.389Z" fill="white"/>
<path d="M153.807 339.389H142.952V328.688H153.807V339.389Z" fill="white"/>
<path d="M113.362 339.389H102.506V328.688H113.362V339.389Z" fill="white"/>
<path d="M133.585 339.389H122.729V328.688H133.585V339.389Z" fill="white"/>
<path d="M93.1394 328.688V339.389H82.2837V328.688H93.1394Z" fill="white"/>
<path d="M376.288 335.124H365.432V333.046H376.288V335.124Z" fill="#9BB8CC"/>
<path d="M356.065 335.124H345.209V333.046H356.065V335.124Z" fill="#9BB8CC"/>
<path d="M335.843 335.124H324.987V333.046H335.843V335.124Z" fill="#9BB8CC"/>
<path d="M315.604 335.124H304.749V333.046H315.604V335.124Z" fill="#9BB8CC"/>
<path d="M295.382 335.124H284.526V333.046H295.382V335.124Z" fill="#9BB8CC"/>
<path d="M254.936 335.124H244.081V333.046H254.936V335.124Z" fill="#9BB8CC"/>
<path d="M275.159 335.124H264.303V333.046H275.159V335.124Z" fill="#9BB8CC"/>
<path d="M234.714 335.124H223.858V333.046H234.714V335.124Z" fill="#9BB8CC"/>
<path d="M214.491 335.124H203.635V333.046H214.491V335.124Z" fill="#9BB8CC"/>
<path d="M194.253 335.124H183.412V333.046H194.253V335.124Z" fill="#9BB8CC"/>
<path d="M174.03 335.124H163.174V333.046H174.03V335.124Z" fill="#9BB8CC"/>
<path d="M153.807 335.124H142.952V333.046H153.807V335.124Z" fill="#9BB8CC"/>
<path d="M113.362 335.124H102.506V333.046H113.362V335.124Z" fill="#9BB8CC"/>
<path d="M133.585 335.124H122.729V333.046H133.585V335.124Z" fill="#9BB8CC"/>
<path d="M93.1394 333.046V335.124H82.2837V333.046H93.1394Z" fill="#9BB8CC"/>
<path d="M932.054 515.484H935.559V441.696H932.054V515.484Z" fill="#171F4E"/>
<path d="M925.308 419.674H947.95C942.429 419.674 937.901 424.203 937.901 429.739V444.549L939.979 445.433H916.701C915.895 445.433 915.259 444.782 915.259 443.991V429.739C915.259 424.203 919.772 419.674 925.308 419.674Z" fill="#171F4E"/>
<path d="M947.718 419.674C953.146 419.798 957.55 424.28 957.55 429.739V444.363C957.55 444.953 957.085 445.433 956.495 445.433H938.956C938.366 445.433 937.901 444.953 937.901 444.363V429.739C937.901 424.28 942.29 419.798 947.718 419.674Z" fill="white"/>
<path d="M929.309 416.418V412.603H935.792V425.924C935.792 427.103 934.83 428.049 933.667 428.049C932.489 428.049 931.543 427.103 931.543 425.924C931.543 424.761 932.489 423.815 933.667 423.815H933.683V416.929L929.309 416.418Z" fill="#1786FA"/>
<path d="M546.955 490.314H543.482V372.933H545.466L546.955 490.314Z" fill="#76A8DC"/>
<path d="M62.2002 514.166L60.3859 487.848L74.9636 470.975L74.064 470.262L65.4724 477.613L64.2164 470.262L62.8672 470.619L63.0998 479.784L59.595 483.18L58.2768 456.289L65.395 447.45L64.6041 446.767L57.2222 452.676L56.7415 438.61H54.8183L53.5467 455.901L51.6703 473.085L42.0551 462.663L41.1557 463.252L44.6606 468.773L38.5503 468.696V469.719L45.2344 470.727L51.7943 481.009L50.2901 514.166H62.2002Z" fill="#994F61"/>
<path d="M0.0281269 418.961C-0.0959386 415.689 0.152147 412.308 1.53238 409.33C2.9126 406.353 5.59566 403.825 8.85238 403.36C10.7289 403.081 12.8224 403.608 13.9855 405.112C10.3101 400.553 6.97587 395.575 5.53361 389.899C4.09135 384.238 4.80466 377.771 8.57315 373.305C12.2021 368.994 18.2657 367.148 23.8331 367.97C29.3851 368.776 34.4253 372.033 38.0853 376.298C37.6821 367.505 35.666 358.65 37.2788 349.996C38.8762 341.343 45.7618 332.673 54.5549 333.061C60.5101 333.325 65.5348 337.59 69.3343 342.195C77.2124 351.733 82.082 363.752 83.059 376.081C85.3387 372.948 87.6648 369.754 90.7199 367.35C93.7906 364.946 97.7141 363.395 101.56 364.015C107.872 365.054 111.889 371.475 113.424 377.678C115.052 384.316 114.82 391.387 112.742 397.901C109.299 408.632 101.234 417.178 93.4184 425.304C97.0163 423.706 101.545 425.862 103.282 429.382C105.639 434.19 103.39 439.711 100.118 443.51C97.3575 446.721 93.6975 449.047 89.9135 450.939C68.7293 461.577 42.9393 460.042 21.5535 450.784C13.6133 447.341 8.07681 441.665 3.84308 434.05C3.82757 434.035 3.81221 434.004 3.7967 433.973C1.28437 429.413 0.214225 424.172 0.0281269 418.961Z" fill="#76A8DC"/>
<path d="M68.0779 463.593C69.0705 462.446 72.0015 461.996 71.9395 464.09C72.8079 457.607 81.2598 460.073 77.3052 466.245C83.8032 459.499 89.5724 468.137 81.1514 471.983C88.3007 472.138 84.3151 482.327 78.0498 477.892C80.5776 479.412 78.9647 482.762 76.2353 482.312C68.9619 481.118 61.5335 469.533 68.0779 463.593Z" fill="#76A8DC"/>
<path d="M80.7794 444.503C81.3532 442.781 81.7718 440.936 81.5082 439.137C81.2601 437.338 80.221 435.555 78.5771 434.795C77.6156 434.345 76.4214 434.298 75.5684 434.903C78.2358 433.073 80.8103 430.949 82.4852 428.173C84.1601 425.381 84.8113 421.83 83.5241 418.852C82.2835 415.983 79.3525 414.029 76.2664 413.579C73.1648 413.13 69.9701 414.045 67.3492 415.735C68.9621 411.129 71.4589 406.725 71.9861 401.871C72.5134 397.017 70.2336 391.31 65.5036 390.116C62.2779 389.294 58.9282 390.767 56.1832 392.612C50.4607 396.427 45.9634 402.026 43.4666 408.431C42.7532 406.399 42.0243 404.337 40.7837 402.569C39.543 400.801 37.6976 399.343 35.5574 399.064C32.0371 398.599 28.8734 401.375 27.059 404.43C25.136 407.702 24.1278 411.501 24.1898 415.285C24.3139 421.551 27.2295 427.382 30.0985 432.949C28.4392 431.522 25.6786 431.957 24.1898 433.554C22.1738 435.725 22.4839 439.013 23.6316 441.572C24.5776 443.712 26.1594 445.526 27.8653 447.155C37.4338 456.196 51.3913 459.499 64.2476 457.979C69.0086 457.421 72.87 455.281 76.3283 451.916C76.3438 451.9 76.3594 451.885 76.3749 451.885C78.4375 449.853 79.8489 447.232 80.7794 444.503Z" fill="#A7D2FF"/>
<path d="M104.786 422.45C103.98 423.924 103.809 425.567 104.29 427.397C106.089 426.824 107.391 425.816 108.213 424.342C109.02 422.869 109.19 421.225 108.694 419.411C106.911 419.969 105.592 420.977 104.786 422.45Z" fill="#76A8DC"/>
<path d="M112.075 427.118C109.78 426.979 107.639 427.754 105.654 429.429C107.422 431.321 109.454 432.345 111.765 432.469C114.06 432.608 116.2 431.833 118.185 430.158C116.417 428.266 114.385 427.258 112.075 427.118Z" fill="#76A8DC"/>
<path d="M79.1197 409.315C78.0187 409.734 77.1968 410.54 76.6385 411.719C77.8481 412.23 78.9957 412.277 80.0812 411.858C81.1668 411.439 81.9887 410.649 82.547 409.454C81.3529 408.958 80.2053 408.912 79.1197 409.315Z" fill="#A7D2FF"/>
<path d="M72.296 478.497C72.9318 478.59 73.5833 478.605 74.1726 478.528C75.0411 478.419 75.894 478.032 76.4523 477.365C76.933 476.791 77.1811 475.876 76.9174 475.147C76.5452 474.108 75.1806 474.356 74.5448 473.565C74.2036 473.131 74.188 472.511 74.2656 471.968C74.3431 471.425 74.4673 470.851 74.3432 470.324C74.2036 469.781 73.6918 469.285 73.149 469.409C72.7458 469.502 72.4822 469.89 72.2186 470.169C72.048 470.355 71.8308 470.51 71.5982 470.495C70.5747 470.479 70.3265 468.959 69.2565 469.145C68.1399 469.347 67.5041 470.51 67.1939 471.503C66.6512 473.224 66.9147 475.116 68.1089 476.527C69.1634 477.784 70.7142 478.28 72.296 478.497Z" fill="#A7D2FF"/>
<path d="M73.1804 515.329C79.3061 506.319 87.1533 501.294 97.4352 504.117C104.212 488.732 124.745 491.245 129.754 507.172C139.369 504.411 147.821 508.552 155.808 515.329H73.1804Z" fill="#A7D2FF"/>
<path d="M583.399 503.233C590.936 479.288 621.813 475.519 632.002 498.627C644.734 495.137 654.985 499.681 663.36 508.971C667.469 503.775 677.224 501.759 684.466 505.993C690.297 487.445 714.211 484.53 722.105 502.426C734.077 499.154 743.211 505 750.345 515.484H668.446H654.132H544.241C556.26 505.311 568.946 499.092 583.399 503.233Z" fill="#76A8DC"/>
<path d="M634.747 515.329C640.873 506.319 648.72 501.294 659.002 504.117C665.779 488.732 686.312 491.245 691.321 507.172C700.936 504.411 709.388 508.552 717.375 515.329H634.747Z" fill="#A7D2FF"/>
<path d="M593.17 482.901C594.255 483.801 595.589 484.189 597.171 484.08C596.985 482.514 596.349 481.273 595.263 480.374C594.178 479.474 592.844 479.071 591.262 479.179C591.448 480.761 592.084 482.002 593.17 482.901Z" fill="#76A8DC"/>
<path d="M598.163 477.613C597.698 479.489 597.993 481.381 599.078 483.273C600.908 482.11 602.071 480.591 602.552 478.714C603.017 476.822 602.723 474.93 601.637 473.038C599.807 474.201 598.644 475.721 598.163 477.613Z" fill="#76A8DC"/>
<path d="M699.974 501.527C700.347 502.891 701.215 503.977 702.564 504.799C703.324 503.403 703.51 502.023 703.138 500.658C702.781 499.294 701.913 498.208 700.548 497.386C699.804 498.782 699.602 500.162 699.974 501.527Z" fill="#A7D2FF"/>
<path d="M707.108 500.069C705.635 501.341 704.797 503.062 704.58 505.233C706.751 505.342 708.581 504.768 710.055 503.496C711.528 502.225 712.365 500.503 712.583 498.348C710.396 498.223 708.581 498.813 707.108 500.069Z" fill="#A7D2FF"/>
<path d="M892.446 515.329C897.068 508.521 902.992 504.721 910.762 506.861C915.864 495.246 931.372 497.138 935.156 509.172C942.414 507.094 948.788 510.211 954.82 515.329H892.446Z" fill="#A7D2FF"/>
<path d="M918.19 512.212C916.98 509.87 914.515 508.086 910.762 506.861L911.677 505.078C915.011 506.706 917.508 509.451 918.19 512.212Z" fill="#76A8DC"/>
<path d="M935.156 509.172C932.861 510.211 931.264 511.343 930.364 512.584C931.481 510.304 932.954 508.753 934.66 507.792L935.156 509.172Z" fill="#76A8DC"/>
<path d="M26.4077 517.035H960V513.933H26.4077V517.035Z" fill="#171F4E"/>
</svg>
